<mxfile host="65bd71144e">
    <diagram id="10vw3R_WP6cfG1K2DFod" name="Page-1">
        <mxGraphModel dx="1416" dy="632" grid="1" gridSize="10" guides="1" tooltips="1" connect="1" arrows="1" fold="1" page="1" pageScale="1" pageWidth="850" pageHeight="1100" math="0" shadow="0">
            <root>
                <mxCell id="0"/>
                <mxCell id="1" parent="0"/>
                <mxCell id="38" value="" style="rounded=0;whiteSpace=wrap;html=1;align=center;" parent="1" vertex="1">
                    <mxGeometry y="40" width="850" height="160" as="geometry"/>
                </mxCell>
                <mxCell id="39" value="" style="edgeStyle=none;html=1;" parent="1" target="38" edge="1">
                    <mxGeometry relative="1" as="geometry">
                        <mxPoint x="283.3333333333335" y="29.999999999999886" as="sourcePoint"/>
                    </mxGeometry>
                </mxCell>
                <mxCell id="40" value="&lt;font style=&quot;font-size: 17px&quot;&gt;Ứng dụng quản lí nhân sự&lt;/font&gt;" style="text;html=1;strokeColor=none;fillColor=none;align=center;verticalAlign=middle;whiteSpace=wrap;rounded=0;strokeWidth=7;" parent="1" vertex="1">
                    <mxGeometry x="270" y="105" width="310" height="30" as="geometry"/>
                </mxCell>
                <mxCell id="56" style="edgeStyle=none;html=1;exitX=0.5;exitY=1;exitDx=0;exitDy=0;fontSize=17;" parent="1" source="43" target="38" edge="1">
                    <mxGeometry relative="1" as="geometry"/>
                </mxCell>
                <mxCell id="43" value="" style="rounded=0;whiteSpace=wrap;html=1;fontSize=17;strokeWidth=1;" parent="1" vertex="1">
                    <mxGeometry width="850" height="40" as="geometry"/>
                </mxCell>
                <mxCell id="72" value="Logo" style="rounded=0;whiteSpace=wrap;html=1;fontSize=17;strokeWidth=1;" parent="1" vertex="1">
                    <mxGeometry x="185" y="5" width="120" height="30" as="geometry"/>
                </mxCell>
                <mxCell id="73" value="Nhân viên" style="rounded=0;whiteSpace=wrap;html=1;fontSize=17;strokeWidth=1;" parent="1" vertex="1">
                    <mxGeometry x="305" y="5" width="120" height="30" as="geometry"/>
                </mxCell>
                <mxCell id="74" value="Phòng ban" style="rounded=0;whiteSpace=wrap;html=1;fontSize=17;strokeWidth=1;fillColor=#76608a;fontColor=#ffffff;strokeColor=#432D57;" parent="1" vertex="1">
                    <mxGeometry x="425" y="5" width="120" height="30" as="geometry"/>
                </mxCell>
                <mxCell id="75" value="Bảng lương" style="rounded=0;whiteSpace=wrap;html=1;fontSize=17;strokeWidth=1;" parent="1" vertex="1">
                    <mxGeometry x="545" y="5" width="120" height="30" as="geometry"/>
                </mxCell>
                <mxCell id="100" value="" style="rounded=0;whiteSpace=wrap;html=1;fontSize=17;strokeWidth=1;" parent="1" vertex="1">
                    <mxGeometry x="2" y="600" width="848" height="120" as="geometry"/>
                </mxCell>
                <mxCell id="120" value="Link" style="shape=rectangle;strokeColor=none;fillColor=none;linkText=;fontSize=17;fontColor=#0000ff;fontStyle=4;html=1;align=center;" parent="1" vertex="1">
                    <mxGeometry x="130" y="610" width="150" height="30" as="geometry"/>
                </mxCell>
                <mxCell id="121" value="&lt;u&gt;-Nhân viên&lt;br&gt;-Phòng ban&lt;br&gt;-Bảng lương&lt;/u&gt;" style="strokeWidth=1;shadow=0;dashed=0;align=center;html=1;shape=mxgraph.mockup.text.bulletedList;textColor=#666666;mainText=,,,,;textSize=17;bulletStyle=none;strokeColor=none;fillColor=none;align=left;verticalAlign=top;fontSize=17;fontColor=#666666;" parent="1" vertex="1">
                    <mxGeometry x="155" y="640" width="150" height="60" as="geometry"/>
                </mxCell>
                <mxCell id="123" value="&lt;b&gt;Address&lt;/b&gt;" style="text;html=1;strokeColor=none;fillColor=none;align=center;verticalAlign=middle;whiteSpace=wrap;rounded=0;fontSize=17;" parent="1" vertex="1">
                    <mxGeometry x="380" y="620" width="60" height="30" as="geometry"/>
                </mxCell>
                <mxCell id="124" value="Social Network&amp;nbsp;" style="strokeWidth=1;shadow=0;dashed=0;align=center;html=1;shape=mxgraph.mockup.buttons.button;strokeColor=#432D57;mainText=;buttonStyle=round;fontSize=17;fontStyle=1;fillColor=#76608a;whiteSpace=wrap;fontColor=#ffffff;" parent="1" vertex="1">
                    <mxGeometry x="560" y="640" width="150" height="40" as="geometry"/>
                </mxCell>
                <mxCell id="126" value="&lt;b&gt;Sale&lt;/b&gt;&lt;br&gt;Số lượng nhân viên: 3&amp;nbsp;" style="rounded=0;whiteSpace=wrap;html=1;fontSize=17;strokeWidth=1;" parent="1" vertex="1">
                    <mxGeometry x="72" y="280" width="220" height="90" as="geometry"/>
                </mxCell>
                <mxCell id="127" value="&lt;b&gt;IT&lt;/b&gt;&lt;br&gt;&lt;span&gt;Số lượng nhân viên: 3&amp;nbsp;&lt;/span&gt;" style="rounded=0;whiteSpace=wrap;html=1;fontSize=17;strokeWidth=1;" vertex="1" parent="1">
                    <mxGeometry x="322" y="280" width="220" height="90" as="geometry"/>
                </mxCell>
                <mxCell id="128" value="&lt;b&gt;Marketing&lt;/b&gt;&lt;br&gt;&lt;span&gt;Số lượng nhân viên: 3&amp;nbsp;&lt;/span&gt;" style="rounded=0;whiteSpace=wrap;html=1;fontSize=17;strokeWidth=1;" vertex="1" parent="1">
                    <mxGeometry x="582" y="280" width="220" height="90" as="geometry"/>
                </mxCell>
                <mxCell id="131" value="&lt;b&gt;Finace&lt;/b&gt;&lt;br&gt;&lt;span&gt;Số lượng nhân viên: 3&amp;nbsp;&lt;/span&gt;" style="rounded=0;whiteSpace=wrap;html=1;fontSize=17;strokeWidth=1;" vertex="1" parent="1">
                    <mxGeometry x="323" y="420" width="220" height="90" as="geometry"/>
                </mxCell>
                <mxCell id="133" value="Nhân viên" style="strokeWidth=1;shadow=0;dashed=0;align=center;html=1;shape=mxgraph.mockup.navigation.anchor;fontSize=17;fontColor=#666666;fontStyle=1;" vertex="1" parent="1">
                    <mxGeometry x="75" y="210" width="80" height="30" as="geometry"/>
                </mxCell>
                <mxCell id="134" value="&gt;" style="strokeWidth=1;shadow=0;dashed=0;align=center;html=1;shape=mxgraph.mockup.navigation.anchor;fontSize=24;fontColor=#aaaaaa;fontStyle=1;" vertex="1" parent="1">
                    <mxGeometry x="165" y="210" width="20" height="30" as="geometry"/>
                </mxCell>
                <mxCell id="139" value="Phòng ban" style="strokeWidth=1;shadow=0;dashed=0;align=center;html=1;shape=mxgraph.mockup.navigation.anchor;fontSize=17;fontColor=#008cff;fontStyle=1;" vertex="1" parent="1">
                    <mxGeometry x="210" y="210" width="60" height="30" as="geometry"/>
                </mxCell>
                <mxCell id="166" value="&lt;b&gt;HR&lt;br&gt;&lt;/b&gt;Số lượng nhân viên: 3&amp;nbsp;" style="rounded=0;whiteSpace=wrap;html=1;fontSize=17;strokeWidth=1;" vertex="1" parent="1">
                    <mxGeometry x="72" y="420" width="220" height="90" as="geometry"/>
                </mxCell>
            </root>
        </mxGraphModel>
    </diagram>
</mxfile>